<svg width="128" height="128" viewBox="0 0 128 128" fill="none" xmlns="http://www.w3.org/2000/svg">
<path d="M18.9375 61H8.21875V15.9062H18.9375V35.2812H19.5L33.375 15.9062H45L30.3438 35.8125L45.5312 61H32.5L22.375 43.4688L18.9375 48.25V61ZM80.9375 61H69.75V42.8125H58.25V61H47.0625V15.9062H58.25V33.5938H69.75V15.9062H80.9375V61ZM118.781 61H88.3438V51.7812H97.8438V25.125H88.3438V15.9062H118.781V25.125H109.281V51.7812H118.781V61ZM8.71875 113V105.719L26.8438 77.7188V77.125H9.0625V67.9062H40.75V75.1875L22.625 103.188V103.781H41.4062V113H8.71875ZM62.625 97.2188H59.2188V113H47.75V67.9062H65.0625C75.5938 67.9062 81.9062 73.4688 81.9062 82.7812C81.9062 88.5625 78.9375 93.4688 74.2188 95.5312L83.0938 113H70.2188L62.625 97.2188ZM59.2188 76.5625V89.125H63.4688C67.5938 89.125 70.1875 86.6562 70.1875 82.75C70.1875 78.9375 67.625 76.5625 63.4375 76.5625H59.2188ZM118.781 113H88.3438V103.781H97.8438V77.125H88.3438V67.9062H118.781V77.125H109.281V103.781H118.781V113Z" fill="black"/>
</svg>
